<svg width="30" height="30" viewBox="0 0 30 30" fill="none" xmlns="http://www.w3.org/2000/svg">
<rect width="30" height="30" rx="15" fill="#F0B56F"/>
<path d="M14.9999 9.86865C12.5131 9.86865 10.2631 11.7752 10.2631 14.7239C10.2631 16.6068 11.7138 18.8213 14.6092 21.3733C14.8342 21.5687 15.1717 21.5687 15.3967 21.3733C18.2861 18.8213 19.7368 16.6068 19.7368 14.7239C19.7368 11.7752 17.4868 9.86865 14.9999 9.86865ZM14.9999 15.7897C14.3486 15.7897 13.8157 15.2568 13.8157 14.6055C13.8157 13.9542 14.3486 13.4213 14.9999 13.4213C15.6513 13.4213 16.1842 13.9542 16.1842 14.6055C16.1842 15.2568 15.6513 15.7897 14.9999 15.7897Z" fill="#EFF5F8"/>
</svg>
