<svg xmlns="http://www.w3.org/2000/svg" viewBox="0 0 145.22 118.9"><defs><style>.cls-1,.cls-2{fill:none;stroke:#000;stroke-miterlimit:10;stroke-width:5px;}.cls-2{stroke-linecap:round;}</style></defs><g id="Layer_2" data-name="Layer 2"><g id="Layer_1-2" data-name="Layer 1"><path class="cls-1" d="M106,4.4V39a1.9,1.9,0,0,1-2.8,1.7L92,34.5a1.94,1.94,0,0,1-1-1.7V10.7A2.06,2.06,0,0,1,92,9l11.2-6.2A1.82,1.82,0,0,1,106,4.4Z"/><path class="cls-1" d="M61.7,32.7a34.3,34.3,0,0,1-.5,5.6,29.57,29.57,0,0,1-29.1,24,29.07,29.07,0,0,1-14.7-3.9A29.73,29.73,0,0,1,32.2,2.9,29,29,0,0,1,44,5.4,30.11,30.11,0,0,1,61.7,32.7Z"/><circle class="cls-1" cx="32" cy="32.7" r="13.5"/><path class="cls-1" d="M55.5,87.6v1.2a13.51,13.51,0,0,1-26.6,3.3L17.3,58.4A29.34,29.34,0,0,0,32,62.3a29.64,29.64,0,0,0,14.2-3.6l8,24.3,1.1,3.2A6.75,6.75,0,0,1,55.5,87.6Z"/><line class="cls-1" x1="61.1" y1="38.3" x2="91" y2="33.9"/><line class="cls-1" x1="91" y1="9.5" x2="43.9" y2="5.5"/><path class="cls-1" d="M49,100.4v.1a15.9,15.9,0,1,0,31.8,0V69.7a14.4,14.4,0,1,1,28.8,0h-.1V96a10.7,10.7,0,0,0,21.4,0V91.2a10.39,10.39,0,0,1,10.4-10.4,11.27,11.27,0,0,1,3.2.5"/><line class="cls-2" x1="116.9" y1="35.4" x2="142.4" y2="35.4"/><line class="cls-2" x1="116.9" y1="7.5" x2="142.4" y2="7.5"/><line class="cls-2" x1="116.9" y1="21.7" x2="132.1" y2="21.7"/></g></g></svg>