<svg xmlns="http://www.w3.org/2000/svg" viewBox="0 0 121.89 89.52"><defs><style>.cls-1,.cls-2,.cls-3,.cls-4{fill:none;stroke:#000;}.cls-1,.cls-3,.cls-4{stroke-miterlimit:10;}.cls-1,.cls-2,.cls-3{stroke-width:4px;}.cls-2,.cls-3,.cls-4{stroke-linecap:round;}.cls-2{stroke-linejoin:round;}.cls-4{stroke-width:2px;}</style></defs><g id="Layer_2" data-name="Layer 2"><g id="Layer_5" data-name="Layer 5"><path class="cls-1" d="M106.34,86.33l-1.07.11A10.69,10.69,0,0,1,100,85.21a22.29,22.29,0,0,1-7.06-6,41.7,41.7,0,0,1-4.17-6.32A75,75,0,0,1,80.9,48.79a84.38,84.38,0,0,1-1.09-12.87,76.66,76.66,0,0,1,.36-7.73c1-9.6,4-17.2,8.47-20.79h0a9.94,9.94,0,0,1,4.72-2.2c10.46-1.68,21.86,15.14,25.44,37.55S116.81,84.67,106.34,86.33Z"/><path class="cls-1" d="M105.27,86.44l-10,1a9.83,9.83,0,0,1-4.86-.51C85.55,85.21,80.77,80,76.93,72.49a76.83,76.83,0,0,1-7.1-22.62c0-.29-.09-.57-.13-.86a84,84,0,0,1-.93-10.68c0-.31,0-.62,0-.92v-.27A69.85,69.85,0,0,1,69.39,27l0-.27A41,41,0,0,1,73,14.44c2.3-4.6,5.46-7.56,9.26-8.16l1-.11h0l10-1a9.94,9.94,0,0,0-4.72,2.2h0C84.19,11,81.18,18.59,80.17,28.19a76.66,76.66,0,0,0-.36,7.73A84.38,84.38,0,0,0,80.9,48.79a75,75,0,0,0,7.87,24.05,41.7,41.7,0,0,0,4.17,6.32,22.29,22.29,0,0,0,7.06,6A10.69,10.69,0,0,0,105.27,86.44Z"/><path class="cls-1" d="M20,36.4C10.44,35.33,4.41,33.76,4.41,32s5.72-3.22,14.87-4.28C19.37,30.39,19.62,33.26,20,36.4Z"/><path class="cls-1" d="M69.7,49c-5.8.33-12.23.51-19,.51-25.57,0-46.29-2.61-46.29-5.83V32c0,1.73,6,3.3,15.61,4.37A286.24,286.24,0,0,0,50.7,37.86c6.4,0,12.5-.15,18-.45,0,.3,0,.61,0,.92A84,84,0,0,0,69.7,49Z"/><path class="cls-1" d="M90.42,86.9c-7.2.33-15,.48-23.18.48C31.21,87.38,2,84,2,79.9a.63.63,0,0,0,0-.27c.4-3.16,0-31.41,0-31.41s-.17-4.53,2.41-4.53c0,3.22,20.72,5.83,46.29,5.83,6.77,0,13.2-.18,19-.51,0,.29.08.57.13.86a76.83,76.83,0,0,0,7.1,22.62C80.77,80,85.55,85.21,90.42,86.9Z"/><path class="cls-2" d="M73,14.44a41,41,0,0,0-3.61,12.27l0,.27a69.85,69.85,0,0,0-.64,10.16v.27c-5.55.3-11.65.45-18,.45A286.24,286.24,0,0,1,20,36.4c-.4-3.14-.65-6-.74-8.65C18.52,7.61,25.94,2,25.94,2,24,18.28,46.53,22,54.24,17S73,14.44,73,14.44Z"/><path class="cls-3" d="M25.94,2s-6.37,19.71,9.78,27.26"/><path class="cls-4" d="M112.43,53.63c.22,11.48-2.6,20.31-7.52,21.47l-.68.11a5.68,5.68,0,0,1-3.33-.78,8.42,8.42,0,0,1-1.37-.92"/><path class="cls-4" d="M86.89,40.78c-.09-.94-.14-1.87-.19-2.78-.09-2-.11-4,0-5.8.31-7.24,1.94-13,4.6-15.83h0a5.75,5.75,0,0,1,2.86-1.78c4.32-1,9.15,4.08,12.77,12.54"/></g></g></svg>