<svg width="106" height="18" viewBox="0 0 106 18" fill="none" xmlns="http://www.w3.org/2000/svg">
<path d="M46.0395 8.475L48.7395 10.95L47.9895 14.4C47.9145 14.85 48.0645 15.3 48.4395 15.525C48.5895 15.675 48.8145 15.75 49.0395 15.75C49.1895 15.75 49.3395 15.75 49.4895 15.675C49.4895 15.675 49.5645 15.675 49.5645 15.6L52.6395 13.875L55.7145 15.6C55.7145 15.6 55.7895 15.6 55.7895 15.675C56.1645 15.825 56.6145 15.825 56.9145 15.6C57.2895 15.375 57.4395 14.925 57.3645 14.475L56.6145 11.025C56.9145 10.8 57.3645 10.35 57.8145 9.9L59.2395 8.625L59.3145 8.55C59.6145 8.25 59.6895 7.8 59.5395 7.425C59.3895 7.05 59.0895 6.75 58.6395 6.675H58.5645L55.0395 6.3L53.6145 3.075C53.6145 3.075 53.6145 3 53.5395 3C53.4645 2.475 53.0895 2.25 52.7145 2.25C52.3395 2.25 51.9645 2.475 51.7395 2.85C51.7395 2.85 51.7395 2.925 51.6645 2.925L50.2395 6.15L46.7145 6.525H46.6395C46.2645 6.6 45.8895 6.9 45.7395 7.275C45.6645 7.725 45.7395 8.175 46.0395 8.475Z" fill="#FDCA40"/>
<path d="M24.1823 8.475L26.8823 10.95L26.1323 14.4C26.0573 14.85 26.2073 15.3 26.5823 15.525C26.7323 15.675 26.9573 15.75 27.1823 15.75C27.3323 15.75 27.4823 15.75 27.6323 15.675C27.6323 15.675 27.7073 15.675 27.7073 15.6L30.7823 13.875L33.8573 15.6C33.8573 15.6 33.9323 15.6 33.9323 15.675C34.3073 15.825 34.7573 15.825 35.0573 15.6C35.4323 15.375 35.5823 14.925 35.5073 14.475L34.7573 11.025C35.0573 10.8 35.5073 10.35 35.9573 9.9L37.3823 8.625L37.4573 8.55C37.7573 8.25 37.8323 7.8 37.6823 7.425C37.5323 7.05 37.2323 6.75 36.7823 6.675H36.7073L33.1823 6.3L31.7573 3.075C31.7573 3.075 31.7573 3 31.6823 3C31.6073 2.475 31.2323 2.25 30.8573 2.25C30.4823 2.25 30.1073 2.475 29.8823 2.85C29.8823 2.85 29.8823 2.925 29.8073 2.925L28.3823 6.15L24.8573 6.525H24.7823C24.4073 6.6 24.0323 6.9 23.8823 7.275C23.8073 7.725 23.8823 8.175 24.1823 8.475Z" fill="#FDCA40"/>
<path d="M2.3251 8.475L5.0251 10.95L4.2751 14.4C4.2001 14.85 4.3501 15.3 4.7251 15.525C4.8751 15.675 5.1001 15.75 5.3251 15.75C5.4751 15.75 5.6251 15.75 5.7751 15.675C5.7751 15.675 5.8501 15.675 5.8501 15.6L8.9251 13.875L12.0001 15.6C12.0001 15.6 12.0751 15.6 12.0751 15.675C12.4501 15.825 12.9001 15.825 13.2001 15.6C13.5751 15.375 13.7251 14.925 13.6501 14.475L12.9001 11.025C13.2001 10.8 13.6501 10.35 14.1001 9.9L15.5251 8.625L15.6001 8.55C15.9001 8.25 15.9751 7.8 15.8251 7.425C15.6751 7.05 15.3751 6.75 14.9251 6.675H14.8501L11.3251 6.3L9.9001 3.075C9.9001 3.075 9.9001 3 9.8251 3C9.7501 2.475 9.3751 2.25 9.0001 2.25C8.6251 2.25 8.2501 2.475 8.0251 2.85C8.0251 2.85 8.0251 2.925 7.9501 2.925L6.5251 6.15L3.0001 6.525H2.9251C2.5501 6.6 2.1751 6.9 2.0251 7.275C1.9501 7.725 2.0251 8.175 2.3251 8.475Z" fill="#FDCA40"/>
<path d="M67.8964 8.475L70.5964 10.95L69.8464 14.4C69.7714 14.85 69.9214 15.3 70.2964 15.525C70.4464 15.675 70.6714 15.75 70.8964 15.75C71.0464 15.75 71.1964 15.75 71.3464 15.675C71.3464 15.675 71.4214 15.675 71.4214 15.6L74.4964 13.875L77.5714 15.6C77.5714 15.6 77.6464 15.6 77.6464 15.675C78.0214 15.825 78.4714 15.825 78.7714 15.6C79.1464 15.375 79.2964 14.925 79.2214 14.475L78.4714 11.025C78.7714 10.8 79.2214 10.35 79.6714 9.9L81.0964 8.625L81.1714 8.55C81.4714 8.25 81.5464 7.8 81.3964 7.425C81.2464 7.05 80.9464 6.75 80.4964 6.675H80.4214L76.8964 6.3L75.4714 3.075C75.4714 3.075 75.4714 3 75.3964 3C75.3214 2.475 74.9464 2.25 74.5714 2.25C74.1964 2.25 73.8214 2.475 73.5964 2.85C73.5964 2.85 73.5964 2.925 73.5214 2.925L72.0964 6.15L68.5714 6.525H68.4964C68.1214 6.6 67.7464 6.9 67.5964 7.275C67.5214 7.725 67.5964 8.175 67.8964 8.475Z" fill="#FDCA40"/>
<path d="M89.7536 8.475L92.4536 10.95L91.7036 14.4C91.6286 14.85 91.7786 15.3 92.1536 15.525C92.3036 15.675 92.5286 15.75 92.7536 15.75C92.9036 15.75 93.0536 15.75 93.2036 15.675C93.2036 15.675 93.2786 15.675 93.2786 15.6L96.3536 13.875L99.4286 15.6C99.4286 15.6 99.5036 15.6 99.5036 15.675C99.8786 15.825 100.329 15.825 100.629 15.6C101.004 15.375 101.154 14.925 101.079 14.475L100.329 11.025C100.629 10.8 101.079 10.35 101.529 9.9L102.954 8.625L103.029 8.55C103.329 8.25 103.404 7.8 103.254 7.425C103.104 7.05 102.804 6.75 102.354 6.675H102.279L98.7536 6.3L97.3286 3.075C97.3286 3.075 97.3286 3 97.2536 3C97.1786 2.475 96.8036 2.25 96.4286 2.25C96.0536 2.25 95.6786 2.475 95.4536 2.85C95.4536 2.85 95.4536 2.925 95.3786 2.925L93.9536 6.15L90.4286 6.525H90.3536C89.9786 6.6 89.6036 6.9 89.4536 7.275C89.3786 7.725 89.4536 8.175 89.7536 8.475Z" fill="#FDCA40"/>
</svg>
