<svg width="73" height="73" viewBox="0 0 73 73" fill="none" xmlns="http://www.w3.org/2000/svg">
<g clip-path="url(#clip0_2106_1271)">
<g filter="url(#filter0_d_2106_1271)">
<path d="M36.4998 6.08325C23.7248 6.08325 12.1665 15.8774 12.1665 31.0249C12.1665 40.6974 19.6186 52.0732 34.4923 65.1828C35.6482 66.1866 37.3819 66.1866 38.5378 65.1828C53.3811 52.0732 60.8332 40.6974 60.8332 31.0249C60.8332 15.8774 49.2748 6.08325 36.4998 6.08325ZM36.4998 36.4999C33.154 36.4999 30.4165 33.7624 30.4165 30.4166C30.4165 27.0708 33.154 24.3333 36.4998 24.3333C39.8457 24.3333 42.5832 27.0708 42.5832 30.4166C42.5832 33.7624 39.8457 36.4999 36.4998 36.4999Z" fill="#F0B56F"/>
</g>
<g filter="url(#filter1_d_2106_1271)">
<circle cx="36.4998" cy="30.4793" r="13.9227" fill="#111010"/>
</g>
<path d="M32.6019 35.6506V34.6705C32.8296 34.6606 33.0177 34.6309 33.1663 34.5814C33.3247 34.5319 33.4435 34.418 33.5227 34.2398C33.6118 34.0616 33.6563 33.7745 33.6563 33.3785V27.6906C33.6563 27.4233 33.6613 27.1658 33.6712 26.9183C33.691 26.6708 33.7058 26.4827 33.7157 26.354C33.5573 26.3639 33.3593 26.3738 33.1217 26.3837C32.8841 26.3837 32.7108 26.3886 32.6019 26.3985V25.255H36.8641V26.2352C36.6463 26.2451 36.4582 26.2748 36.2998 26.3243C36.1414 26.3738 36.0176 26.4877 35.9285 26.6659C35.8493 26.8342 35.8097 27.1213 35.8097 27.5272V33.2151C35.8097 33.4824 35.8048 33.7349 35.7949 33.9725C35.785 34.2101 35.7701 34.3933 35.7503 34.522H37.7403C38.3244 34.5121 38.7799 34.3091 39.1066 33.9131C39.4432 33.5072 39.6115 32.8983 39.6115 32.0864H40.6065L40.5174 35.6506H32.6019Z" fill="#EFF5F8"/>
</g>
<defs>
<filter id="filter0_d_2106_1271" x="7.65104" y="4.5781" width="57.6974" height="68.8832" filterUnits="userSpaceOnUse" color-interpolation-filters="sRGB">
<feFlood flood-opacity="0" result="BackgroundImageFix"/>
<feColorMatrix in="SourceAlpha" type="matrix" values="0 0 0 0 0 0 0 0 0 0 0 0 0 0 0 0 0 0 127 0" result="hardAlpha"/>
<feOffset dy="3.01031"/>
<feGaussianBlur stdDeviation="2.25773"/>
<feComposite in2="hardAlpha" operator="out"/>
<feColorMatrix type="matrix" values="0 0 0 0 0 0 0 0 0 0 0 0 0 0 0 0 0 0 0.25 0"/>
<feBlend mode="normal" in2="BackgroundImageFix" result="effect1_dropShadow_2106_1271"/>
<feBlend mode="normal" in="SourceGraphic" in2="effect1_dropShadow_2106_1271" result="shape"/>
</filter>
<filter id="filter1_d_2106_1271" x="22.5771" y="16.5566" width="27.8452" height="29.8455" filterUnits="userSpaceOnUse" color-interpolation-filters="sRGB">
<feFlood flood-opacity="0" result="BackgroundImageFix"/>
<feColorMatrix in="SourceAlpha" type="matrix" values="0 0 0 0 0 0 0 0 0 0 0 0 0 0 0 0 0 0 127 0" result="hardAlpha"/>
<feMorphology radius="2" operator="erode" in="SourceAlpha" result="effect1_dropShadow_2106_1271"/>
<feOffset dy="3"/>
<feGaussianBlur stdDeviation="0.5"/>
<feComposite in2="hardAlpha" operator="out"/>
<feColorMatrix type="matrix" values="0 0 0 0 0 0 0 0 0 0 0 0 0 0 0 0 0 0 0.25 0"/>
<feBlend mode="normal" in2="BackgroundImageFix" result="effect1_dropShadow_2106_1271"/>
<feBlend mode="normal" in="SourceGraphic" in2="effect1_dropShadow_2106_1271" result="shape"/>
</filter>
<clipPath id="clip0_2106_1271">
<rect width="73" height="73" fill="white"/>
</clipPath>
</defs>
</svg>
