<svg width="30" height="30" viewBox="0 0 30 30" fill="none" xmlns="http://www.w3.org/2000/svg">
<rect width="30" height="30" rx="15" fill="#F0B56F"/>
<path d="M16.9229 17.4336L17.9176 16.4389C18.0516 16.3066 18.2211 16.216 18.4055 16.1782C18.59 16.1403 18.7815 16.1569 18.9567 16.2258L20.1691 16.7098C20.3462 16.7817 20.498 16.9044 20.6055 17.0624C20.713 17.2205 20.7713 17.4068 20.773 17.598V19.8184C20.772 19.9484 20.7447 20.0768 20.6927 20.196C20.6407 20.3152 20.5651 20.4226 20.4705 20.5118C20.3759 20.601 20.2643 20.6701 20.1422 20.7151C20.0202 20.76 19.8904 20.7797 19.7605 20.7731C11.2653 20.2447 9.55115 13.0506 9.22697 10.2973C9.21192 10.1621 9.22567 10.0252 9.26731 9.89572C9.30895 9.76621 9.37755 9.64699 9.46858 9.54589C9.55961 9.44479 9.67101 9.36411 9.79546 9.30916C9.91991 9.25421 10.0546 9.22623 10.1906 9.22707H12.3355C12.5269 9.22764 12.7138 9.28545 12.8721 9.39308C13.0303 9.50071 13.1528 9.65322 13.2237 9.83102L13.7077 11.0434C13.7789 11.2179 13.797 11.4096 13.7599 11.5944C13.7228 11.7792 13.6321 11.949 13.499 12.0825L12.5043 13.0772C12.5043 13.0772 13.0771 16.954 16.9229 17.4336Z" fill="#EFF5F8"/>
</svg>
