<svg width="30" height="30" viewBox="0 0 30 30" fill="none" xmlns="http://www.w3.org/2000/svg">
<rect width="30" height="30" rx="15" fill="#F0B56F"/>
<path d="M15 20.9212C14.1907 20.9212 13.4259 20.7657 12.7055 20.4546C11.9852 20.144 11.3561 19.7196 10.8185 19.1816C10.2805 18.644 9.85614 18.015 9.54548 17.2946C9.23443 16.5742 9.0789 15.8094 9.0789 15.0002C9.0789 14.1811 9.23443 13.4139 9.54548 12.6986C9.85614 11.983 10.2805 11.3563 10.8185 10.8187C11.3561 10.2807 11.9852 9.85614 12.7055 9.54509C13.4259 9.23443 14.1907 9.0791 15 9.0791C15.819 9.0791 16.5862 9.23443 17.3015 9.54509C18.0171 9.85614 18.6438 10.2807 19.1814 10.8187C19.7194 11.3563 20.1438 11.983 20.4544 12.6986C20.7655 13.4139 20.921 14.1811 20.921 15.0002V15.8587C20.921 16.4409 20.7213 16.9367 20.3218 17.3461C19.9219 17.7558 19.4309 17.9607 18.8486 17.9607C18.4934 17.9607 18.1628 17.8817 17.8569 17.7238C17.5509 17.5659 17.2993 17.3587 17.1019 17.1021C16.8355 17.3686 16.5223 17.5784 16.1623 17.7315C15.8019 17.8843 15.4144 17.9607 15 17.9607C14.1809 17.9607 13.4828 17.6719 12.9057 17.0944C12.3282 16.5173 12.0394 15.8192 12.0394 15.0002C12.0394 14.1811 12.3282 13.4828 12.9057 12.9053C13.4828 12.3282 14.1809 12.0396 15 12.0396C15.819 12.0396 16.5173 12.3282 17.0948 12.9053C17.6719 13.4828 17.9605 14.1811 17.9605 15.0002V15.8587C17.9605 16.1449 18.0493 16.3693 18.2269 16.5319C18.4046 16.695 18.6118 16.7765 18.8486 16.7765C19.0855 16.7765 19.2927 16.695 19.4704 16.5319C19.648 16.3693 19.7368 16.1449 19.7368 15.8587V15.0002C19.7368 13.7074 19.2704 12.5946 18.3377 11.6619C17.4053 10.7295 16.2927 10.2633 15 10.2633C13.7072 10.2633 12.5944 10.7295 11.6617 11.6619C10.7293 12.5946 10.2631 13.7074 10.2631 15.0002C10.2631 16.2929 10.7293 17.4055 11.6617 18.3379C12.5944 19.2706 13.7072 19.737 15 19.737H17.9605V20.9212H15ZM15 16.7765C15.4934 16.7765 15.9128 16.6038 16.2582 16.2584C16.6036 15.913 16.7763 15.4936 16.7763 15.0002C16.7763 14.5067 16.6036 14.0873 16.2582 13.7419C15.9128 13.3965 15.4934 13.2238 15 13.2238C14.5065 13.2238 14.0871 13.3965 13.7417 13.7419C13.3963 14.0873 13.2236 14.5067 13.2236 15.0002C13.2236 15.4936 13.3963 15.913 13.7417 16.2584C14.0871 16.6038 14.5065 16.7765 15 16.7765Z" fill="#EFF5F8"/>
</svg>
