<svg xmlns="http://www.w3.org/2000/svg" viewBox="0 0 118.03 118.03"><defs><style>.cls-1,.cls-2{fill:none;stroke:#000;stroke-miterlimit:10;stroke-width:4px;}.cls-2{stroke-linecap:round;}</style></defs><g id="Layer_2" data-name="Layer 2"><g id="Layer_3" data-name="Layer 3"><path class="cls-1" d="M89.82,73.93C85.13,77.81,66.65,97,66.65,97A172.52,172.52,0,0,1,33,114.57c-9.38,3.69-17.47-.08-23.27-6.22-6.15-5.81-9.92-13.9-6.24-23.29A173.23,173.23,0,0,1,21,51.37S40.22,32.9,44.09,28.2,55.8,26.06,55.8,26.06c-.1,7.47,3.11,10.51,3.11,10.51L70.15,47.88,81.46,59.12s3,3.21,10.51,3.11C92,62.23,94.52,70.06,89.82,73.93Z"/><path class="cls-1" d="M115.2,39,92,62.23c-7.47.1-10.51-3.11-10.51-3.11L70.15,47.89,58.91,36.57s-3.21-3-3.11-10.51L79,2.83,86.3,10.1l-6.57,6.56a2.43,2.43,0,0,0,.31,3.4L98,38a2.44,2.44,0,0,0,3.4.31l6.57-6.57Z"/><line class="cls-2" x1="88.89" y1="28.92" x2="97.01" y2="20.8"/><line class="cls-2" x1="94.54" y1="34.56" x2="102.65" y2="26.45"/><line class="cls-2" x1="83.46" y1="23.49" x2="91.58" y2="15.38"/><rect class="cls-1" x="61.93" y="34" width="28.07" height="16.13" rx="1.28" transform="translate(51.99 -41.4) rotate(45)"/><path class="cls-1" d="M62,65.57A6.77,6.77,0,1,1,62,56,6.77,6.77,0,0,1,62,65.57Z"/><path class="cls-1" d="M62,65.57,46.77,80.84a6.77,6.77,0,1,1-9.58-9.58L52.46,56A6.77,6.77,0,1,0,62,65.57Z"/><line class="cls-2" x1="21.59" y1="84.14" x2="33.89" y2="96.44"/><line class="cls-2" x1="15.08" y1="90.64" x2="27.38" y2="102.95"/></g></g></svg>