<svg xmlns="http://www.w3.org/2000/svg" viewBox="0 0 103.51 116.78"><defs><style>.cls-1,.cls-2{fill:none;stroke:#000;stroke-miterlimit:10;stroke-width:4px;}.cls-2{stroke-linecap:round;}</style></defs><g id="Layer_2" data-name="Layer 2"><g id="Layer_2-2" data-name="Layer 2"><path class="cls-1" d="M89.82,49.05a7.85,7.85,0,0,1-1.28,4.31l-.06.08a3.05,3.05,0,0,1-.22.32C79.1,66.88,54.16,99.2,22.31,113l0,0h0q-1.47.64-3,1.23a13.61,13.61,0,0,1-8.61-25.78c1.23-.26,2.45-.54,3.65-.86C44.81,79.81,65.9,57,73.69,47.3l1-1.2c1.58-2,2.39-3.2,2.39-3.2A7.83,7.83,0,0,1,82,41.17a7.69,7.69,0,0,1,3.15.66h0A7.88,7.88,0,0,1,89.82,49.05Z"/><path class="cls-1" d="M85.1,41.61a8,8,0,0,0-3.28-.69,8.12,8.12,0,0,0-5.12,1.8s-.84,1.24-2.49,3.33l-1,1.25L61.61,39,51.27,42.64A7.69,7.69,0,0,1,45,42.08L11.87,23.45c-6.1-4.06-6.77-5.89-6-10.24,1-5.63,6.38-10.48,11.49-11.16a9,9,0,0,1,5.67,1.59l.4.24.3.19C30.48,8.2,83.51,40.78,85.1,41.61Z"/><path class="cls-1" d="M51.11,34S13.08,11.74,7.91,8.4"/><path class="cls-2" d="M89.67,50.56s6.34,1.51,11.84,0"/></g></g></svg>