<svg width="60" height="60" viewBox="0 0 60 60" fill="none" xmlns="http://www.w3.org/2000/svg">
<rect width="60" height="60" rx="10" fill="#111010"/>
<path d="M19.0364 45V42.312C19.6608 42.2848 20.1767 42.2034 20.584 42.0676C21.0184 41.9319 21.3442 41.6196 21.5615 41.1309C21.8058 40.6422 21.928 39.8548 21.928 38.7687V23.1702C21.928 22.4371 21.9416 21.7312 21.9687 21.0524C22.023 20.3736 22.0638 19.8577 22.0909 19.5047C21.6565 19.5319 21.1135 19.559 20.4618 19.5862C19.8102 19.5862 19.335 19.5998 19.0364 19.6269V16.4909C20.9098 16.4638 22.7833 16.4502 24.6567 16.4502C26.5573 16.4502 28.4444 16.4366 30.3178 16.4095C33.576 16.3823 36.1554 16.9932 38.056 18.2422C39.9838 19.464 40.8798 21.3239 40.744 23.8218C40.6897 24.6092 40.4453 25.383 40.0109 26.1433C39.5765 26.8764 38.9248 27.5416 38.056 28.1389C37.2143 28.7362 36.1554 29.2114 34.8793 29.5644V29.6051C37.5944 30.0395 39.5901 30.9491 40.8662 32.3338C42.1423 33.6914 42.7804 35.2119 42.7804 36.8953C42.7804 38.6601 42.3459 40.1535 41.4771 41.3753C40.6354 42.5699 39.4679 43.4795 37.9745 44.104C36.4812 44.7013 34.7842 45 32.8836 45H19.0364ZM27.6705 42.1084C28.1593 42.1084 28.6208 42.1084 29.0553 42.1084C29.4897 42.1084 29.9241 42.1084 30.3585 42.1084C30.793 42.0812 31.2138 42.0676 31.6211 42.0676C33.2773 41.9862 34.4856 41.4567 35.2458 40.4793C36.0061 39.5018 36.3862 38.2664 36.3862 36.7731C36.3862 35.5241 36.1282 34.5467 35.6124 33.8407C35.0965 33.1076 34.4313 32.5918 33.6167 32.2931C32.8293 31.9944 32.0012 31.8451 31.1324 31.8451C30.4536 31.8451 29.8698 31.8451 29.3811 31.8451C28.8924 31.8451 28.3765 31.8587 27.8335 31.8858V38.5244C27.8335 39.2575 27.8199 39.9498 27.7927 40.6015C27.7656 41.2531 27.7248 41.7554 27.6705 42.1084ZM27.8335 28.9942L29.9513 28.9535C31.0916 28.9263 31.9876 28.6684 32.6393 28.1796C33.3181 27.6909 33.7932 27.0393 34.0647 26.2247C34.3634 25.383 34.5127 24.4735 34.5127 23.496C34.5127 22.4099 34.2955 21.5682 33.8611 20.9709C33.4267 20.3464 32.8836 19.8984 32.232 19.6269C31.5804 19.3554 30.9016 19.2332 30.1956 19.2604C29.7612 19.2604 29.3675 19.3282 29.0145 19.464C28.6616 19.5998 28.3765 19.912 28.1593 20.4007C27.9421 20.8623 27.8335 21.6225 27.8335 22.6815V28.9942Z" fill="#F0B56F"/>
</svg>
