<svg width="232" height="56" viewBox="0 0 232 56" fill="none" xmlns="http://www.w3.org/2000/svg">
<path d="M15.9876 44.4281L6.48024 26.8524C6.05097 26.0422 5.70214 25.3495 5.43373 24.7745C5.16124 24.1763 4.9651 23.6726 4.84531 23.2633C4.45498 23.3535 4.08785 23.4398 3.74392 23.5221C3.41911 23.5774 3.10794 23.6422 2.81041 23.7166L2.40677 21.4221L12.0814 19.7774L12.4177 21.6895C11.3969 21.8631 10.7376 22.19 10.4398 22.6703C10.1652 23.1467 10.2922 23.9367 10.8209 25.0403C11.4135 26.3718 12.0212 27.653 12.6439 28.8839C13.2666 30.1148 13.8819 31.3708 14.4895 32.652C14.8997 33.4894 15.2764 34.2727 15.6198 35.0021C15.9823 35.7043 16.3889 36.59 16.8399 37.6591L16.9095 37.6473C16.9411 37.2839 16.9851 36.787 17.0415 36.1568C17.0979 35.5266 17.1618 34.8712 17.2333 34.1907C17.3279 33.5062 17.398 32.8856 17.4434 32.3289C17.5079 31.745 17.5526 31.3197 17.5773 31.0529C17.7804 29.4907 17.978 27.9652 18.1701 26.4764C18.3813 24.9605 18.572 23.5317 18.7422 22.1899C18.9315 20.8209 19.0872 19.6009 19.2094 18.5298L21.6455 18.1157C22.1183 19.0379 22.6266 20.0257 23.1703 21.079C23.71 22.1092 24.2673 23.1722 24.8424 24.2679C25.4134 25.3405 25.9707 26.4035 26.5144 27.4569C27.0541 28.487 27.5562 29.44 28.0209 30.3159C28.4543 31.1493 28.8664 31.9982 29.2575 32.8627C29.6717 33.7233 30.0763 34.5974 30.4714 35.485L30.541 35.4732C30.6234 34.7192 30.6997 33.9304 30.7699 33.1069C30.8633 32.2794 30.9642 31.4268 31.0726 30.549C31.203 29.5243 31.3149 28.5982 31.4082 27.7707C31.5016 26.9432 31.584 26.1892 31.6555 25.5087C31.746 24.8011 31.8216 24.1437 31.882 23.5367C31.9384 22.9065 31.9969 22.2878 32.0573 21.6808C32.1068 21.1472 32.1891 20.5961 32.3041 20.0276C32.4383 19.4319 32.6235 18.9229 32.8599 18.5008C32.4696 18.5911 31.9981 18.6951 31.4453 18.8129C30.9117 18.9036 30.4845 18.9882 30.1638 19.0666L29.7602 16.772L37.3467 15.4823L37.6831 17.3945C37.088 17.5434 36.5809 17.7847 36.1618 18.1186C35.7617 18.4253 35.4291 18.9115 35.1639 19.5772C34.8946 20.2197 34.6818 21.1153 34.5254 22.2638C34.0973 25.5352 33.6672 28.795 33.2351 32.0433C32.7988 35.2684 32.351 38.4954 31.8916 41.7245L29.4903 42.1327L22.6239 29.5863C22.226 28.8185 21.8553 28.0699 21.512 27.3405C21.1918 26.6072 20.8642 25.8991 20.529 25.216C20.5162 25.9582 20.4761 26.6811 20.4087 27.3848C20.3645 28.0846 20.3013 28.8115 20.2188 29.5655L18.3193 44.0317L15.9876 44.4281Z" fill="#111010"/>
<path d="M60.1262 29.1258C60.016 28.1199 59.7857 27.4225 59.4354 27.0336C59.1059 26.6188 58.6551 26.3944 58.0832 26.3603C57.5322 26.3003 56.8718 26.3229 56.102 26.428L54.6705 26.6505L55.3815 33.1422C55.4507 33.7738 55.503 34.3599 55.5385 34.9004C55.5715 35.4176 55.5812 35.8307 55.5678 36.1397L60.9348 35.5361C61.7539 35.4495 62.4861 35.2181 63.1315 34.8422C63.7743 34.4428 64.2653 33.8466 64.6046 33.0534C64.9413 32.2368 65.0379 31.1735 64.8944 29.8635L66.8251 29.6591L67.4644 37.1168L49.0699 39.0638L48.8585 37.1339C49.5113 37.0411 50.0029 36.8826 50.3334 36.6583C50.6614 36.4106 50.8687 36.0337 50.9553 35.5275C51.0393 34.998 51.0327 34.2888 50.9353 33.3998L49.4018 19.3988C49.3378 18.814 49.288 18.2513 49.2525 17.7108C49.2403 17.1678 49.2293 16.743 49.2194 16.4364C48.8241 16.5019 48.3703 16.5736 47.858 16.6515C47.3432 16.706 46.9349 16.761 46.6332 16.8166L46.3796 14.5007L63.6858 12.6689L64.619 19.2435L62.6883 19.4479C62.5422 18.1145 62.211 17.1438 61.6946 16.5358C61.1991 15.902 60.5991 15.504 59.8948 15.3419C59.1905 15.1798 58.4769 15.1489 57.754 15.2491L55.9325 15.4774C55.3031 15.5676 54.8232 15.7249 54.4927 15.9492C54.1621 16.1735 53.9419 16.54 53.8319 17.0486C53.7427 17.5313 53.7493 18.2406 53.8518 19.1763L54.4399 24.5451L59.3583 24.06L58.8484 21.0257L61.1652 20.7805L62.0569 28.9214L60.1262 29.1258Z" fill="#111010"/>
<path d="M76.2256 36.4186L76.1124 34.4805C76.7689 34.4198 77.2679 34.2856 77.6093 34.0777C77.9494 33.8464 78.1755 33.48 78.2876 32.9787C78.3984 32.4539 78.4277 31.7451 78.3755 30.8524L77.5537 16.7916C77.5194 16.2043 77.4982 15.6398 77.4901 15.0981C77.5055 14.5551 77.5161 14.1303 77.5217 13.8235C77.1236 13.8696 76.6668 13.9189 76.1513 13.9716C75.6344 14.0008 75.2239 14.0358 74.9198 14.0766L74.7839 11.7507L84.1588 11.2212L84.272 13.1594C83.639 13.2187 83.1407 13.3647 82.7772 13.5974C82.4357 13.8053 82.2089 14.1598 82.0968 14.6612C81.9846 15.1625 81.9553 15.8713 82.0089 16.7875L82.8286 30.813C82.8657 31.4473 82.8883 32.0353 82.8964 32.577C82.9031 33.0951 82.8918 33.5083 82.8627 33.8163L88.2177 33.4785C89.6261 33.3754 90.6905 32.8321 91.411 31.8486C92.1314 30.865 92.4339 29.3865 92.3186 27.4131L94.2923 27.3016L94.5525 35.3835L76.2256 36.4186Z" fill="#111010"/>
<path d="M121.013 18.22C120.721 16.1739 120.019 14.6239 118.908 13.57C117.797 12.4926 116.358 11.958 114.593 11.9662C113.346 11.9719 112.23 12.2595 111.244 12.8289C110.282 13.3746 109.462 14.1315 108.784 15.0995C108.129 16.0439 107.629 17.1522 107.282 18.4247C106.935 19.6736 106.765 21.0158 106.772 22.4513C106.782 24.5457 107.12 26.3915 107.787 27.9887C108.477 29.5858 109.424 30.8405 110.629 31.7527C111.857 32.6649 113.283 33.1172 114.906 33.1097C116.413 33.1027 117.893 32.7311 119.349 31.9948C120.828 31.2349 122.047 30.1703 123.005 28.8009L124.458 30.1003C123.36 31.6115 122.188 32.7701 120.945 33.576C119.702 34.3583 118.48 34.8935 117.282 35.1814C116.106 35.4693 115.036 35.6154 114.071 35.6199C112.259 35.6283 110.61 35.3182 109.125 34.6896C107.663 34.0375 106.387 33.1491 105.3 32.0245C104.235 30.8763 103.405 29.5505 102.809 28.0471C102.237 26.52 101.947 24.874 101.939 23.109C101.931 21.4853 102.17 19.8839 102.657 18.3049C103.167 16.7257 103.925 15.2985 104.931 14.023C105.96 12.7474 107.25 11.7295 108.799 10.9693C110.349 10.1855 112.147 9.78887 114.195 9.7794C115.23 9.77461 116.313 9.93433 117.445 10.2586C118.576 10.5593 119.637 11.0133 120.628 11.6206L120.479 9.99744L122.915 9.98617L122.954 18.211L121.013 18.22Z" fill="#111010"/>
<path d="M144.613 36.3733C142.38 36.2534 140.498 35.7752 138.965 34.9388C137.432 34.1023 136.207 33.0349 135.289 31.7366C134.396 30.416 133.769 28.9801 133.408 27.4288C133.046 25.8775 132.908 24.3382 132.992 22.8109C133.075 21.3306 133.404 19.8517 133.981 18.3744C134.56 16.8736 135.389 15.5159 136.47 14.3013C137.575 13.088 138.924 12.1353 140.518 11.4432C142.112 10.7511 143.955 10.4611 146.046 10.5735C148.185 10.6883 150.008 11.175 151.516 12.0337C153.047 12.8937 154.271 13.9963 155.186 15.3417C156.126 16.6648 156.789 18.0909 157.175 19.6199C157.585 21.1502 157.749 22.6555 157.667 24.1359C157.586 25.5927 157.257 27.0597 156.68 28.5371C156.103 30.0144 155.261 31.3714 154.156 32.6083C153.075 33.8228 151.736 34.7879 150.141 35.5036C148.547 36.1957 146.704 36.4856 144.613 36.3733ZM145.016 34.2032C146.332 34.2739 147.454 34.0277 148.381 33.4647C149.331 32.903 150.116 32.1439 150.734 31.1873C151.353 30.2307 151.825 29.1719 152.148 28.0109C152.497 26.8277 152.703 25.6604 152.767 24.5091C152.855 22.9348 152.772 21.4574 152.519 20.0769C152.267 18.6729 151.84 17.4363 151.24 16.3671C150.663 15.2991 149.897 14.4449 148.943 13.8045C147.99 13.1406 146.866 12.7857 145.573 12.7398C144.279 12.6939 143.156 12.9635 142.204 13.5487C141.277 14.1117 140.492 14.8826 139.848 15.8614C139.23 16.818 138.758 17.8885 138.433 19.073C138.107 20.2575 137.913 21.4254 137.849 22.5768C137.784 23.7516 137.856 24.9928 138.066 26.3003C138.276 27.6078 138.655 28.8536 139.202 30.0377C139.749 31.2219 140.497 32.193 141.444 32.9509C142.416 33.71 143.606 34.1275 145.016 34.2032Z" fill="#111010"/>
<path d="M178.755 39.0256C178.15 36.8429 177.531 34.6821 176.897 32.5432C176.29 30.3838 175.684 28.2127 175.079 26.03C174.913 25.4647 174.727 24.7667 174.523 23.936C174.319 23.1054 174.124 22.193 173.94 21.1989C173.756 20.2048 173.587 19.1887 173.432 18.1507C173.359 19.1138 173.269 20.0273 173.161 20.8913C173.079 21.7348 172.977 22.5521 172.854 23.3432C172.775 23.9737 172.677 24.6612 172.56 25.4056C172.467 26.1528 172.359 26.922 172.236 27.7132C172.114 28.5043 171.99 29.3071 171.864 30.1216C171.765 30.9155 171.668 31.6861 171.575 32.4334C171.479 33.0143 171.384 33.5836 171.29 34.1412C171.197 34.6988 171.105 35.15 171.014 35.4946C171.438 35.5221 171.908 35.5552 172.425 35.5939C172.965 35.6355 173.387 35.6747 173.691 35.7114L173.402 38.0232L165.832 37.1084L166.073 35.1819C166.683 35.232 167.174 35.1964 167.545 35.0753C167.919 34.9309 168.215 34.6467 168.434 34.2228C168.653 33.7989 168.814 33.1782 168.916 32.3609L171.084 18.1514C171.18 17.5705 171.262 17.0114 171.329 16.4744C171.42 15.9401 171.499 15.4992 171.566 15.1518C171.189 15.13 170.742 15.0997 170.225 15.0609C169.711 14.9988 169.289 14.9597 168.959 14.9435L169.249 12.6317L176.222 13.4744L180.051 27.8042C180.209 28.4396 180.373 29.123 180.542 29.8546C180.735 30.5891 180.917 31.3104 181.09 32.0187C181.262 32.7269 181.41 33.3492 181.532 33.8855L181.567 33.8897C181.964 33.1792 182.353 32.4439 182.732 31.6838C183.115 30.9004 183.49 30.1754 183.858 29.5087C185.102 27.1464 186.357 24.7971 187.621 22.461C188.912 20.1043 190.206 17.7243 191.502 15.3209L198.616 16.1806L198.375 18.1071C197.838 18.0421 197.361 18.0674 196.943 18.1828C196.549 18.3011 196.229 18.5825 195.984 19.0269C195.741 19.448 195.572 20.1387 195.475 21.0989L194.359 35.4355C194.335 36.0016 194.268 36.5387 194.157 37.0467C194.07 37.5577 193.995 37.9635 193.934 38.2642C194.337 38.2655 194.795 38.2972 195.309 38.3593C195.85 38.4009 196.272 38.4401 196.575 38.4768L196.286 40.7886L187.175 39.6875L187.415 37.761C188.002 37.8082 188.495 37.761 188.892 37.6194C189.289 37.4777 189.598 37.1833 189.82 36.736C190.045 36.2654 190.193 35.5602 190.263 34.6205L190.942 25.7779C190.98 25.4743 191.012 25.0278 191.038 24.4384C191.064 23.8489 191.108 23.2142 191.169 22.5342C191.231 21.8542 191.288 21.2092 191.34 20.5992C191.25 20.7542 191.147 20.9078 191.034 21.06C190.943 21.2149 190.864 21.3713 190.797 21.5292L181.278 39.3305L178.755 39.0256Z" fill="#111010"/>
<path d="M218.643 35.9088C218.832 34.9146 218.815 34.1818 218.593 33.7104C218.399 33.2202 218.033 32.8779 217.495 32.6836C216.984 32.4703 216.345 32.3052 215.577 32.1883L214.14 31.9966L212.923 38.4127C212.804 39.0369 212.683 39.6128 212.559 40.1404C212.439 40.6448 212.328 41.043 212.224 41.3351L217.543 42.2745C218.353 42.4231 219.123 42.4086 219.851 42.2311C220.584 42.0305 221.229 41.5985 221.786 40.935C222.347 40.2484 222.751 39.2578 222.996 37.963L224.906 38.3132L223.337 45.6338L205.143 42.2976L205.505 40.3901C206.158 40.4859 206.675 40.4731 207.057 40.3518C207.444 40.2074 207.753 39.9051 207.984 39.445C208.219 38.9619 208.42 38.281 208.587 37.4024L211.213 23.5646C211.323 22.9865 211.439 22.4338 211.563 21.9062C211.711 21.3829 211.824 20.9731 211.904 20.6768C211.507 20.6278 211.051 20.5681 210.537 20.4979C210.028 20.4045 209.621 20.3418 209.315 20.3097L209.75 18.0207L226.867 21.1595L225.838 27.7178L223.929 27.3676C224.179 26.0497 224.145 25.0268 223.828 24.2988C223.539 23.5518 223.081 23.0012 222.453 22.6469C221.826 22.2927 221.151 22.0613 220.429 21.9528L218.617 21.6564C217.988 21.565 217.482 21.5799 217.099 21.7012C216.717 21.8225 216.399 22.111 216.145 22.5669C215.918 23.0038 215.717 23.6847 215.542 24.6095L214.535 29.9158L219.389 30.8418L219.788 27.7927L222.08 28.2129L220.553 36.2589L218.643 35.9088Z" fill="#111010"/>
</svg>
